<mxfile host="app.diagrams.net" agent="Mozilla/5.0 (X11; Linux x86_64; rv:135.0) Gecko/20100101 Firefox/135.0" version="26.0.16">
  <diagram name="第 1 页" id="1b5kCncy0TBT1YDwiy0c">
    <mxGraphModel dx="975" dy="507" grid="1" gridSize="10" guides="1" tooltips="1" connect="1" arrows="1" fold="1" page="1" pageScale="1" pageWidth="827" pageHeight="1169" math="0" shadow="0">
      <root>
        <mxCell id="0" />
        <mxCell id="1" parent="0" />
        <mxCell id="gOfiZ8nAuM1pWCLpOkiA-20" value="" style="group" vertex="1" connectable="0" parent="1">
          <mxGeometry x="120" y="210" width="620" height="290" as="geometry" />
        </mxCell>
        <mxCell id="gOfiZ8nAuM1pWCLpOkiA-3" value="" style="group" vertex="1" connectable="0" parent="gOfiZ8nAuM1pWCLpOkiA-20">
          <mxGeometry x="27.13347921225383" y="85.29411764705883" width="162.800875273523" height="156.37254901960785" as="geometry" />
        </mxCell>
        <mxCell id="gOfiZ8nAuM1pWCLpOkiA-2" value="" style="rounded=1;whiteSpace=wrap;html=1;fillColor=#1ba1e2;strokeColor=#006EAF;fontColor=#ffffff;gradientColor=#0000FF;" vertex="1" parent="gOfiZ8nAuM1pWCLpOkiA-3">
          <mxGeometry width="162.800875273523" height="156.37254901960782" as="geometry" />
        </mxCell>
        <mxCell id="gOfiZ8nAuM1pWCLpOkiA-1" value="&lt;b&gt;LLM&lt;/b&gt;" style="rounded=1;whiteSpace=wrap;html=1;" vertex="1" parent="gOfiZ8nAuM1pWCLpOkiA-3">
          <mxGeometry x="11.628633948108783" y="10.424836601307188" width="139.5436073773054" height="135.52287581699346" as="geometry" />
        </mxCell>
        <mxCell id="gOfiZ8nAuM1pWCLpOkiA-4" value="" style="group" vertex="1" connectable="0" parent="gOfiZ8nAuM1pWCLpOkiA-20">
          <mxGeometry x="443.63238512035014" y="83.87254901960783" width="162.800875273523" height="156.37254901960785" as="geometry" />
        </mxCell>
        <mxCell id="gOfiZ8nAuM1pWCLpOkiA-5" value="" style="rounded=1;whiteSpace=wrap;html=1;fillColor=#d5e8d4;strokeColor=#82b366;gradientColor=#97d077;" vertex="1" parent="gOfiZ8nAuM1pWCLpOkiA-4">
          <mxGeometry width="162.800875273523" height="156.37254901960782" as="geometry" />
        </mxCell>
        <mxCell id="gOfiZ8nAuM1pWCLpOkiA-6" value="&lt;div&gt;&lt;b&gt;Fine-Tuned&lt;/b&gt;&lt;/div&gt;&lt;div&gt;&lt;b&gt;LLM&lt;/b&gt;&lt;/div&gt;" style="rounded=1;whiteSpace=wrap;html=1;" vertex="1" parent="gOfiZ8nAuM1pWCLpOkiA-4">
          <mxGeometry x="11.628633948108783" y="10.424836601307188" width="139.5436073773054" height="135.52287581699346" as="geometry" />
        </mxCell>
        <mxCell id="gOfiZ8nAuM1pWCLpOkiA-12" value="" style="group" vertex="1" connectable="0" parent="gOfiZ8nAuM1pWCLpOkiA-20">
          <mxGeometry x="257.7680525164114" y="113.72549019607843" width="94.96717724288841" height="99.50980392156862" as="geometry" />
        </mxCell>
        <mxCell id="gOfiZ8nAuM1pWCLpOkiA-7" value="" style="rounded=0;whiteSpace=wrap;html=1;fillColor=#d5e8d4;strokeColor=#82b366;gradientColor=#97d077;" vertex="1" parent="gOfiZ8nAuM1pWCLpOkiA-12">
          <mxGeometry width="40.70021881838075" height="42.64705882352941" as="geometry" />
        </mxCell>
        <mxCell id="gOfiZ8nAuM1pWCLpOkiA-8" value="" style="rounded=0;whiteSpace=wrap;html=1;fillColor=#fff2cc;strokeColor=#d6b656;gradientColor=#ffd966;" vertex="1" parent="gOfiZ8nAuM1pWCLpOkiA-12">
          <mxGeometry x="13.566739606126916" y="14.215686274509803" width="40.70021881838075" height="42.64705882352941" as="geometry" />
        </mxCell>
        <mxCell id="gOfiZ8nAuM1pWCLpOkiA-9" value="" style="rounded=0;whiteSpace=wrap;html=1;fillColor=#d5e8d4;strokeColor=#82b366;gradientColor=#97d077;" vertex="1" parent="gOfiZ8nAuM1pWCLpOkiA-12">
          <mxGeometry x="27.13347921225383" y="28.431372549019606" width="40.70021881838075" height="42.64705882352941" as="geometry" />
        </mxCell>
        <mxCell id="gOfiZ8nAuM1pWCLpOkiA-10" value="" style="rounded=0;whiteSpace=wrap;html=1;fillColor=#fff2cc;strokeColor=#d6b656;gradientColor=#ffd966;" vertex="1" parent="gOfiZ8nAuM1pWCLpOkiA-12">
          <mxGeometry x="40.70021881838075" y="42.64705882352941" width="40.70021881838075" height="42.64705882352941" as="geometry" />
        </mxCell>
        <mxCell id="gOfiZ8nAuM1pWCLpOkiA-11" value="" style="rounded=0;whiteSpace=wrap;html=1;fillColor=#d5e8d4;strokeColor=#82b366;gradientColor=#97d077;" vertex="1" parent="gOfiZ8nAuM1pWCLpOkiA-12">
          <mxGeometry x="54.26695842450766" y="56.86274509803921" width="40.70021881838075" height="42.64705882352941" as="geometry" />
        </mxCell>
        <mxCell id="gOfiZ8nAuM1pWCLpOkiA-13" value="&lt;i&gt;&lt;b&gt;特定知识数据集&lt;/b&gt;&lt;/i&gt;" style="text;html=1;align=center;verticalAlign=middle;whiteSpace=wrap;rounded=0;" vertex="1" parent="gOfiZ8nAuM1pWCLpOkiA-20">
          <mxGeometry x="236.0612691466083" y="227.45098039215685" width="162.800875273523" height="42.64705882352941" as="geometry" />
        </mxCell>
        <mxCell id="gOfiZ8nAuM1pWCLpOkiA-14" value="" style="endArrow=classic;html=1;rounded=0;" edge="1" parent="gOfiZ8nAuM1pWCLpOkiA-20">
          <mxGeometry width="50" height="50" relative="1" as="geometry">
            <mxPoint x="203.50109409190372" y="170.58823529411765" as="sourcePoint" />
            <mxPoint x="244.20131291028449" y="170.58823529411765" as="targetPoint" />
          </mxGeometry>
        </mxCell>
        <mxCell id="gOfiZ8nAuM1pWCLpOkiA-16" value="" style="endArrow=classic;html=1;rounded=0;" edge="1" parent="gOfiZ8nAuM1pWCLpOkiA-20">
          <mxGeometry width="50" height="50" relative="1" as="geometry">
            <mxPoint x="377.83369803063454" y="170.58823529411765" as="sourcePoint" />
            <mxPoint x="418.5339168490153" y="170.58823529411765" as="targetPoint" />
          </mxGeometry>
        </mxCell>
        <mxCell id="gOfiZ8nAuM1pWCLpOkiA-17" value="&lt;b&gt;&lt;font style=&quot;font-size: 16px;&quot;&gt;大模型微调&lt;/font&gt;&lt;/b&gt;" style="text;html=1;align=center;verticalAlign=middle;whiteSpace=wrap;rounded=0;" vertex="1" parent="gOfiZ8nAuM1pWCLpOkiA-20">
          <mxGeometry x="222.49452954048138" width="176.3676148796499" height="42.64705882352941" as="geometry" />
        </mxCell>
        <mxCell id="gOfiZ8nAuM1pWCLpOkiA-18" value="&lt;i&gt;具备了特定知识的大模型&lt;/i&gt;" style="text;html=1;align=center;verticalAlign=middle;whiteSpace=wrap;rounded=0;" vertex="1" parent="gOfiZ8nAuM1pWCLpOkiA-20">
          <mxGeometry x="430.0656455142232" y="247.35294117647058" width="189.93435448577682" height="42.64705882352941" as="geometry" />
        </mxCell>
        <mxCell id="gOfiZ8nAuM1pWCLpOkiA-19" value="&lt;i&gt;不具备特定知识的大模型&lt;/i&gt;" style="text;html=1;align=center;verticalAlign=middle;whiteSpace=wrap;rounded=0;" vertex="1" parent="gOfiZ8nAuM1pWCLpOkiA-20">
          <mxGeometry y="247.35294117647058" width="189.93435448577682" height="42.64705882352941" as="geometry" />
        </mxCell>
      </root>
    </mxGraphModel>
  </diagram>
</mxfile>
